<svg width="1200" height="630" viewBox="0 0 1200 630" fill="none" xmlns="http://www.w3.org/2000/svg">
  <defs>
    <linearGradient id="bg" x1="127" y1="56" x2="1080" y2="611" gradientUnits="userSpaceOnUse">
      <stop stop-color="#FFF7ED"/>
      <stop offset="0.48" stop-color="#FEF2F2"/>
      <stop offset="1" stop-color="#F8FAFC"/>
    </linearGradient>
    <linearGradient id="panelA" x1="131" y1="154" x2="500" y2="451" gradientUnits="userSpaceOnUse">
      <stop stop-color="#FFF1F2"/>
      <stop offset="1" stop-color="#FFFFFF"/>
    </linearGradient>
    <linearGradient id="panelB" x1="703" y1="154" x2="1075" y2="451" gradientUnits="userSpaceOnUse">
      <stop stop-color="#0F172A"/>
      <stop offset="1" stop-color="#1E293B"/>
    </linearGradient>
    <filter id="shadow" x="84" y="112" width="436" height="381" filterUnits="userSpaceOnUse" color-interpolation-filters="sRGB">
      <feFlood flood-opacity="0" result="BackgroundImageFix"/>
      <feColorMatrix in="SourceAlpha" type="matrix" values="0 0 0 0 0 0 0 0 0 0 0 0 0 0 0 0 0 0 127 0" result="hardAlpha"/>
      <feOffset dy="18"/>
      <feGaussianBlur stdDeviation="18"/>
      <feColorMatrix type="matrix" values="0 0 0 0 0.0588235 0 0 0 0 0.0901961 0 0 0 0 0.164706 0 0 0 0.1 0"/>
      <feBlend mode="normal" in2="BackgroundImageFix" result="effect1_dropShadow_1_1"/>
      <feBlend mode="normal" in="SourceGraphic" in2="effect1_dropShadow_1_1" result="shape"/>
    </filter>
    <filter id="shadowDark" x="656" y="112" width="436" height="381" filterUnits="userSpaceOnUse" color-interpolation-filters="sRGB">
      <feFlood flood-opacity="0" result="BackgroundImageFix"/>
      <feColorMatrix in="SourceAlpha" type="matrix" values="0 0 0 0 0 0 0 0 0 0 0 0 0 0 0 0 0 0 127 0" result="hardAlpha"/>
      <feOffset dy="18"/>
      <feGaussianBlur stdDeviation="18"/>
      <feColorMatrix type="matrix" values="0 0 0 0 0.0588235 0 0 0 0 0.0901961 0 0 0 0 0.164706 0 0 0 0.18 0"/>
      <feBlend mode="normal" in2="BackgroundImageFix" result="effect1_dropShadow_1_1"/>
      <feBlend mode="normal" in="SourceGraphic" in2="effect1_dropShadow_1_1" result="shape"/>
    </filter>
  </defs>
  <rect width="1200" height="630" rx="36" fill="url(#bg)"/>
  <circle cx="1098" cy="79" r="126" fill="#FECACA" fill-opacity="0.45"/>
  <circle cx="171" cy="564" r="154" fill="#E2E8F0" fill-opacity="0.65"/>
  <rect x="87" y="82" width="1026" height="466" rx="32" fill="#FFFFFF" fill-opacity="0.66" stroke="#E5E7EB"/>
  <text x="120" y="150" fill="#DC2626" font-family="Arial, sans-serif" font-size="18" font-weight="700" letter-spacing="4">JES.PH</text>
  <text x="120" y="232" fill="#0F172A" font-family="Arial, sans-serif" font-size="56" font-weight="700">AI Workflow</text>
  <text x="120" y="290" fill="#334155" font-family="Arial, sans-serif" font-size="24">Two tools, shared CLI, repeatable skills, structured review loops.</text>
  <g filter="url(#shadow)">
    <rect x="120" y="330" width="364" height="309" rx="28" fill="url(#panelA)"/>
    <text x="152" y="380" fill="#DC2626" font-family="Arial, sans-serif" font-size="16" font-weight="700" letter-spacing="3">ORCHESTRATION</text>
    <text x="152" y="430" fill="#0F172A" font-family="Arial, sans-serif" font-size="38" font-weight="700">Claude</text>
    <rect x="152" y="463" width="300" height="44" rx="18" fill="#FFFFFF" stroke="#FCA5A5"/>
    <circle cx="176" cy="485" r="6" fill="#EF4444"/>
    <text x="194" y="492" fill="#334155" font-family="Arial, sans-serif" font-size="19">Context and planning</text>
    <rect x="152" y="521" width="282" height="44" rx="18" fill="#FFFFFF" stroke="#FCA5A5"/>
    <circle cx="176" cy="543" r="6" fill="#EF4444"/>
    <text x="194" y="550" fill="#334155" font-family="Arial, sans-serif" font-size="19">Command-driven setup</text>
    <rect x="152" y="579" width="246" height="44" rx="18" fill="#FFFFFF" stroke="#FCA5A5"/>
    <circle cx="176" cy="601" r="6" fill="#EF4444"/>
    <text x="194" y="608" fill="#334155" font-family="Arial, sans-serif" font-size="19">Review and iteration</text>
  </g>
  <g filter="url(#shadowDark)">
    <rect x="692" y="330" width="364" height="309" rx="28" fill="url(#panelB)"/>
    <text x="724" y="380" fill="#F87171" font-family="Arial, sans-serif" font-size="16" font-weight="700" letter-spacing="3">EXECUTION</text>
    <text x="724" y="430" fill="#FFFFFF" font-family="Arial, sans-serif" font-size="38" font-weight="700">Codex</text>
    <rect x="724" y="463" width="280" height="44" rx="18" fill="#1E293B" stroke="#475569"/>
    <circle cx="748" cy="485" r="6" fill="#F87171"/>
    <text x="766" y="492" fill="#E2E8F0" font-family="Arial, sans-serif" font-size="19">Code and verification</text>
    <rect x="724" y="521" width="252" height="44" rx="18" fill="#1E293B" stroke="#475569"/>
    <circle cx="748" cy="543" r="6" fill="#F87171"/>
    <text x="766" y="550" fill="#E2E8F0" font-family="Arial, sans-serif" font-size="19">PR comment handling</text>
    <rect x="724" y="579" width="258" height="44" rx="18" fill="#1E293B" stroke="#475569"/>
    <circle cx="748" cy="601" r="6" fill="#F87171"/>
    <text x="766" y="608" fill="#E2E8F0" font-family="Arial, sans-serif" font-size="19">Review loops with gh</text>
  </g>
  <path d="M484 454C548 454 560 454 602 454C644 454 656 454 720 454" stroke="#CBD5E1" stroke-width="10" stroke-linecap="round" stroke-dasharray="18 18"/>
  <path d="M601 430L641 454L601 478" stroke="#DC2626" stroke-width="8" stroke-linecap="round" stroke-linejoin="round"/>
  <rect x="504" y="500" width="168" height="54" rx="27" fill="#EFF6FF" stroke="#BAE6FD"/>
  <text x="536" y="534" fill="#0369A1" font-family="Arial, sans-serif" font-size="22" font-weight="700">Review Loop</text>
</svg>
